<svg viewBox="0 0 665.4 130.0393" width="5000" height="977.1513375413285" xmlns="http://www.w3.org/2000/svg" xmlns:xlink="http://www.w3.org/1999/xlink" preserveAspectRatio="none"><defs></defs><style>.companyName {fill:#285A84;fill-opacity:1;}.icon1 {fill:#85C872;fill-opacity:1;}.icon2 {fill:#C2EF7E;fill-opacity:1;}.icon3 {fill:#5EA669;fill-opacity:1;}.shapeStroke-str {stroke:#285A84;stroke-opacity:1;}</style><g opacity="1" transform="rotate(0 0 16.600700000000018)">
<svg width="96.9387" height="96.8378" x="0" y="16.600700000000018" version="1.1" preserveAspectRatio="none" viewBox="2 2.049999713897705 48 47.95000076293945">
  <g transform="matrix(1 0 0 1 0 0)" class="icon1"><g><g><path d="M45,50H8c-3.3,0-6-2.7-6-6c0-3,2.2-5.4,5-5.9c0,0,0-0.1,0-0.1c0-4.4,3.6-8,8-8c0.8,0,1.6,0.1,2.4,0.4    C18.5,26.6,22,24,26,24c5,0,9,4,9,9c0,0.1,0,0.2,0,0.3c0.6-0.2,1.3-0.3,2-0.3c3.9,0,7,3.1,7,7c0,0,0,0.1,0,0.1    c0.3-0.1,0.7-0.1,1-0.1c2.8,0,5,2.2,5,5S47.8,50,45,50z M8,40c-2.2,0-4,1.8-4,4c0,2.2,1.8,4,4,4h37c1.7,0,3-1.3,3-3s-1.3-3-3-3    c-0.6,0-1.2,0.2-1.7,0.5c-0.3,0.2-0.8,0.2-1.2,0c-0.3-0.2-0.5-0.7-0.4-1.1c0.1-0.5,0.2-0.9,0.2-1.4c0-2.8-2.2-5-5-5    c-1,0-1.9,0.3-2.7,0.8c-0.3,0.2-0.8,0.2-1.1,0c-0.3-0.2-0.5-0.7-0.4-1.1c0.1-0.6,0.2-1.2,0.2-1.7c0-3.9-3.1-7-7-7    c-3.5,0-6.4,2.5-6.9,5.9c0,0.3-0.2,0.6-0.5,0.7s-0.6,0.1-0.9,0C16.8,32.2,15.9,32,15,32c-3.3,0-6,2.7-6,6c0,0.3,0,0.5,0.1,0.9    c0,0.3,0,0.6-0.2,0.8C8.6,39.9,8.4,40,8.1,40C8,40,8,40,8,40z"></path></g><g><g><path d="M38.7,9.3c-0.3,0-0.5-0.1-0.7-0.3c-6.6-6.6-17.4-6.6-24,0c-0.4,0.4-1,0.4-1.4,0s-0.4-1,0-1.4C20,0.2,32,0.2,39.4,7.6     c0.4,0.4,0.4,1,0,1.4C39.2,9.2,39,9.3,38.7,9.3z"></path></g><g><path d="M17.5,13.5c-0.3,0-0.5-0.1-0.7-0.3c-0.4-0.4-0.4-1,0-1.4C19.3,9.4,22.5,8,26,8c3.5,0,6.7,1.4,9.2,3.8     c0.4,0.4,0.4,1,0,1.4s-1,0.4-1.4,0C31.7,11.1,28.9,10,26,10c-2.9,0-5.7,1.1-7.8,3.2C18,13.4,17.8,13.5,17.5,13.5z"></path></g><g><path d="M30.2,17.8c-0.3,0-0.5-0.1-0.7-0.3c-1.9-1.9-5.1-1.9-7.1,0c-0.4,0.4-1,0.4-1.4,0s-0.4-1,0-1.4c2.7-2.7,7.2-2.7,9.9,0     c0.4,0.4,0.4,1,0,1.4C30.8,17.7,30.5,17.8,30.2,17.8z"></path></g></g></g></g>
</svg>
</g><g opacity="1" transform="rotate(0 143.9742 37.351699999999994)">
<svg width="521.4258" height="55.3359" x="143.9742" y="37.351699999999994" version="1.1" preserveAspectRatio="none" viewBox="1.12 -28.48 272.88 28.96">
  <g transform="matrix(1 0 0 1 0 0)" class="companyName"><path d="M12.52 0.48Q9.20 0.48 6.10-0.42Q3-1.32 1.12-2.76L1.12-2.76L3.32-7.64Q5.12-6.32 7.60-5.52Q10.08-4.72 12.56-4.72L12.56-4.72Q15.32-4.72 16.64-5.54Q17.96-6.36 17.96-7.72L17.96-7.72Q17.96-8.72 17.18-9.38Q16.40-10.04 15.18-10.44Q13.96-10.84 11.88-11.32L11.88-11.32Q8.68-12.08 6.64-12.84Q4.60-13.60 3.14-15.28Q1.68-16.96 1.68-19.76L1.68-19.76Q1.68-22.20 3-24.18Q4.32-26.16 6.98-27.32Q9.64-28.48 13.48-28.48L13.48-28.48Q16.16-28.48 18.72-27.84Q21.28-27.20 23.20-26L23.20-26L21.20-21.08Q17.32-23.28 13.44-23.28L13.44-23.28Q10.72-23.28 9.42-22.40Q8.12-21.52 8.12-20.08L8.12-20.08Q8.12-18.64 9.62-17.94Q11.12-17.24 14.20-16.56L14.20-16.56Q17.40-15.80 19.44-15.04Q21.48-14.28 22.94-12.64Q24.40-11 24.40-8.20L24.40-8.20Q24.40-5.80 23.06-3.82Q21.72-1.84 19.04-0.68Q16.36 0.48 12.52 0.48L12.52 0.48Z M40.96-28Q44.68-28 47.42-26.76Q50.16-25.52 51.64-23.24Q53.12-20.96 53.12-17.84L53.12-17.84Q53.12-14.76 51.64-12.46Q50.16-10.16 47.42-8.94Q44.68-7.72 40.96-7.72L40.96-7.72L35.32-7.72L35.32 0L28.84 0L28.84-28L40.96-28ZM40.60-13Q43.52-13 45.04-14.26Q46.56-15.52 46.56-17.84L46.56-17.84Q46.56-20.20 45.04-21.46Q43.52-22.72 40.60-22.72L40.60-22.72L35.32-22.72L35.32-13L40.60-13Z M64.16-5.20L79.40-5.20L79.40 0L57.72 0L57.72-28L78.88-28L78.88-22.80L64.16-22.80L64.16-16.72L77.16-16.72L77.16-11.68L64.16-11.68L64.16-5.20Z M91-5.20L106.24-5.20L106.24 0L84.56 0L84.56-28L105.72-28L105.72-22.80L91-22.80L91-16.72L104-16.72L104-11.68L91-11.68L91-5.20Z M111.40 0L111.40-28L124.12-28Q128.68-28 132.18-26.26Q135.68-24.52 137.62-21.36Q139.56-18.20 139.56-14L139.56-14Q139.56-9.80 137.62-6.64Q135.68-3.48 132.18-1.74Q128.68 0 124.12 0L124.12 0L111.40 0ZM117.88-5.32L123.80-5.32Q128-5.32 130.50-7.66Q133-10 133-14L133-14Q133-18 130.50-20.34Q128-22.68 123.80-22.68L123.80-22.68L117.88-22.68L117.88-5.32Z M157.84 0.48Q153.56 0.48 150.10-1.38Q146.64-3.24 144.66-6.54Q142.68-9.84 142.68-14L142.68-14Q142.68-18.16 144.66-21.46Q146.64-24.76 150.10-26.62Q153.56-28.48 157.88-28.48L157.88-28.48Q161.52-28.48 164.46-27.20Q167.40-25.92 169.40-23.52L169.40-23.52L165.24-19.68Q162.40-22.96 158.20-22.96L158.20-22.96Q155.60-22.96 153.56-21.82Q151.52-20.68 150.38-18.64Q149.24-16.60 149.24-14L149.24-14Q149.24-11.40 150.38-9.36Q151.52-7.32 153.56-6.18Q155.60-5.04 158.20-5.04L158.20-5.04Q162.40-5.04 165.24-8.36L165.24-8.36L169.40-4.52Q167.40-2.08 164.44-0.80Q161.48 0.48 157.84 0.48L157.84 0.48Z M192.96-28L199.44-28L199.44 0L192.96 0L192.96-11.48L180.24-11.48L180.24 0L173.76 0L173.76-28L180.24-28L180.24-16.96L192.96-16.96L192.96-28Z M206.08 0L206.08-28L212.56-28L212.56 0L206.08 0Z M219.20 0L219.20-28L225.68-28L225.68-5.28L239.72-5.28L239.72 0L219.20 0Z M243.36 0L243.36-28L249.84-28L249.84-5.28L263.88-5.28L263.88 0L243.36 0Z M267.52 0L267.52-28L274-28L274 0L267.52 0Z"/></g>
</svg>
</g><g opacity="1" transform="rotate(0 116.30630000000008 0)">
<svg width="5.5336" height="130.0393" x="116.30630000000008" y="0" version="1.1" preserveAspectRatio="none" viewBox="0 0 5.5336 130.0393">
  <rect x="0" y="0" width="5.5336" height="130.0393" class="companyName shapeStroke-str" style="stroke-width:0;" rx="0px" ry="0px" />
</svg>
</g></svg>